<?xml version="1.0" encoding="UTF-8"?> <svg xmlns="http://www.w3.org/2000/svg" xmlns:xlink="http://www.w3.org/1999/xlink" width="117.403" height="41.392" viewBox="0 0 117.403 41.392"><defs><style>.a{fill:none;}.b{fill:#051f4e;}.c{clip-path:url(#a);}.d{fill:#fff127;}.e{fill:#ff2727;}</style><clipPath id="a"><path class="a" d="M252.275,28.961c3.961-1.268,7.893-3.826,8.6-7.616H250.766a10.675,10.675,0,1,1,0-21.35l16.74,0a10.673,10.673,0,0,1,10.673,10.392,14.976,14.976,0,0,1,.043,1.925c-1.208,12.066-12.36,16.777-22.913,16.777C254.292,29.09,253.265,29.047,252.275,28.961Z" transform="translate(-240.09 0.005)"></path></clipPath></defs><g transform="translate(0 5.142)"><path class="b" d="M7.7,17.75a7.161,7.161,0,0,1,7.14,4.915H11.336A3.83,3.83,0,0,0,7.682,20.49c-2.641,0-4.549,1.938-4.549,5.028s1.895,5.028,4.549,5.028a3.813,3.813,0,0,0,3.654-2.2h3.519a7.137,7.137,0,0,1-7.14,4.919A7.491,7.491,0,0,1,0,25.518,7.5,7.5,0,0,1,7.7,17.75Z" transform="translate(0 -17.03)"></path><path class="b" d="M54.18,15.57h3.047v16.1H54.18Z" transform="translate(-36.294 -15.57)"></path><path class="b" d="M77.5,39.685a5.838,5.838,0,0,1-6.051-6.223c0-3.786,2.492-6.223,6.051-6.223A5.661,5.661,0,0,1,83.443,33.2a7.041,7.041,0,0,1-.086,1.175H74.54a2.822,2.822,0,0,0,2.9,2.786A2.486,2.486,0,0,0,79.851,35.7h3.285A5.6,5.6,0,0,1,77.5,39.685ZM74.563,32.33h5.721a2.676,2.676,0,0,0-2.872-2.588A2.8,2.8,0,0,0,74.563,32.33Z" transform="translate(-47.863 -23.388)"></path><path class="b" d="M115.185,27.83l3.047,9.243,3.047-9.243h3.242l-4.46,12.056h-3.7L111.92,27.83Z" transform="translate(-74.973 -23.783)"></path><path class="b" d="M160.291,39.685a5.839,5.839,0,0,1-6.051-6.223c0-3.786,2.482-6.223,6.051-6.223a5.659,5.659,0,0,1,5.942,5.962,7.043,7.043,0,0,1-.086,1.175H157.33a2.824,2.824,0,0,0,2.9,2.786,2.486,2.486,0,0,0,2.416-1.459h3.285A5.6,5.6,0,0,1,160.291,39.685Zm-2.938-7.355h5.721a2.689,2.689,0,0,0-2.875-2.588,2.8,2.8,0,0,0-2.846,2.588Z" transform="translate(-103.323 -23.388)"></path><path class="b" d="M201.647,39.529H198.6V27.473h3.047v1.872a4.183,4.183,0,0,1,3.687-2.047v3.2h-.792c-1.806,0-2.9.7-2.9,3.027Z" transform="translate(-133.039 -23.426)"></path><g transform="translate(0.739 19.949)"><path class="b" d="M15.557,86.382c0,4.592-3.156,7.573-8.009,7.573H2.24V78.77H7.548C12.394,78.767,15.557,81.771,15.557,86.382ZM7.443,91.367c3.2,0,5-1.829,5-4.985s-1.806-5.047-5-5.047H5.287V91.367Z" transform="translate(-2.24 -77.856)"></path><path class="b" d="M53.181,100.109a5.84,5.84,0,0,1-6.051-6.226c0-3.786,2.479-6.223,6.051-6.223a5.663,5.663,0,0,1,5.942,5.962,7.381,7.381,0,0,1-.086,1.175H50.22a2.82,2.82,0,0,0,2.9,2.786,2.479,2.479,0,0,0,2.413-1.459h3.3A5.641,5.641,0,0,1,53.181,100.109Zm-2.938-7.355h5.721a2.688,2.688,0,0,0-2.872-2.591,2.8,2.8,0,0,0-2.849,2.591Z" transform="translate(-32.311 -83.811)"></path><path class="b" d="M101.331,100.313h-3.07V98.791a4.437,4.437,0,0,1-3.588,1.677c-2.809,0-4.833-1.829-4.833-5.137V88.26h3.047V94.9c0,1.938,1.066,2.971,2.677,2.971s2.7-1.043,2.7-2.971V88.26h3.07Z" transform="translate(-60.922 -84.213)"></path><path class="b" d="M132.276,84.733H130.84v-2.5h1.436V79.26h3.07v2.971h2.7v2.5h-2.7v5.83c0,.805.33,1.155,1.284,1.155h1.413v2.565h-1.915c-2.311,0-3.852-.99-3.852-3.74Z" transform="translate(-88.387 -78.184)"></path><path class="b" d="M162.605,100.109c-3.024,0-5.133-1.763-5.265-4h3.067a2,2,0,0,0,2.179,1.611c1.218,0,1.849-.545,1.849-1.241,0-2.156-6.81-.782-6.81-5.2,0-2,1.783-3.611,4.764-3.611,2.918,0,4.681,1.588,4.853,3.985h-2.915a1.794,1.794,0,0,0-2.024-1.568c-1.132,0-1.72.456-1.72,1.152,0,2.2,6.682.829,6.767,5.246C167.349,98.541,165.543,100.109,162.605,100.109Z" transform="translate(-106.139 -83.811)"></path><path class="b" d="M198.832,87.66a5.375,5.375,0,0,1,5.678,4.265h-3.285a2.364,2.364,0,0,0-2.416-1.674c-1.7,0-2.829,1.284-2.829,3.631s1.132,3.615,2.829,3.615a2.3,2.3,0,0,0,2.416-1.651h3.285a5.5,5.5,0,0,1-5.678,4.265c-3.483,0-5.962-2.44-5.962-6.226S195.349,87.66,198.832,87.66Z" transform="translate(-129.94 -83.811)"></path><path class="b" d="M234.92,76h3.047v5.546a4.638,4.638,0,0,1,3.744-1.674c2.72,0,4.7,1.829,4.7,5.156V92.1h-3.047V85.441c0-1.934-1.066-2.971-2.677-2.971s-2.72,1.046-2.72,2.971V92.1H234.92Z" transform="translate(-158.108 -76)"></path></g></g><g class="c" transform="translate(79.258 0)"><g transform="translate(-17.358 -22.096)"><path class="d" d="M243.361,32.768,308.935,6.306,299.247-12.95S265.192-4.037,253.03,5.7s-20.51,15.354-20.51,15.354Z" transform="translate(-217.661 30.773)"></path><path class="e" d="M218.774,9.138s6.417-14.433,26.6-16.212a124.16,124.16,0,0,0,38.98-10.234l-9.7-19.272s-34.052,8.913-46.216,18.645S207.93-2.578,207.93-2.578Z" transform="translate(-201.189 46.602)"></path><path d="M198.351-21.225s6.411-14.525,26.6-16.209a119.889,119.889,0,0,0,38.98-10.234l-9.7-19.272s-34.052,8.913-46.216,18.645-20.51,15.357-20.51,15.357Z" transform="translate(-187.51 66.94)"></path></g></g></svg> 